<?xml version="1.0" standalone="no"?>
<!DOCTYPE svg PUBLIC "-//W3C//DTD SVG 20010904//EN"
 "http://www.w3.org/TR/2001/REC-SVG-20010904/DTD/svg10.dtd">
<svg version="1.0" xmlns="http://www.w3.org/2000/svg"
 width="386.000000pt" height="68.000000pt" viewBox="0 0 386.000000 68.000000"
 preserveAspectRatio="xMidYMid meet">

<g transform="translate(0.000000,68.000000) scale(0.100000,-0.100000)"
fill="#000000" stroke="none">
<path d="M123 588 c-15 -19 -46 -339 -38 -387 9 -53 46 -98 93 -111 23 -7 133
-10 297 -8 l260 3 9 73 9 72 46 0 46 0 31 -73 31 -72 299 0 c264 0 303 2 330
17 31 17 32 17 37 -3 5 -18 12 -20 84 -17 l78 3 9 68 8 67 85 0 84 0 -3 -67
-3 -68 153 -3 c150 -2 152 -2 161 20 4 13 14 89 21 171 l13 147 90 0 89 0 -5
-32 c-13 -72 -29 -278 -24 -292 6 -14 37 -16 240 -16 168 0 236 3 245 12 7 7
12 32 13 58 1 87 9 88 67 5 l52 -75 183 2 182 3 9 67 8 68 85 0 84 0 -3 -67
-3 -68 78 -3 c56 -2 79 1 82 10 9 26 35 275 35 342 0 81 -22 125 -74 150 -39
19 -256 23 -316 6 -40 -11 -94 -61 -109 -103 -8 -20 -40 -285 -41 -336 0 -7
-120 178 -120 185 0 3 41 55 91 115 53 64 89 117 87 127 -3 14 -18 17 -104 20
l-101 3 -71 -76 -71 -76 2 73 2 73 -175 0 -175 0 -3 -28 -3 -28 -30 25 c-40
34 -66 37 -268 34 l-174 -3 -12 -35 c-11 -33 -12 -34 -23 -14 -22 41 -70 54
-204 54 -152 0 -186 -9 -232 -60 -20 -22 -36 -34 -36 -26 0 22 -66 74 -102 81
-18 3 -114 5 -213 3 l-180 -3 -3 -25 c-6 -53 -11 -55 -45 -22 -18 17 -45 36
-60 41 -43 16 -532 15 -544 -1 -6 -7 -16 -76 -22 -153 -7 -77 -15 -148 -17
-157 -5 -15 -18 -18 -91 -18 l-86 0 6 38 c15 98 29 272 24 286 -5 13 -21 16
-75 16 -44 0 -73 -5 -79 -12z m1815 -175 l3 -33 -85 0 c-83 0 -86 1 -86 23 0
39 19 48 95 45 l70 -3 3 -32z m1660 0 l3 -33 -85 0 c-83 0 -86 1 -86 23 0 39
19 48 95 45 l70 -3 3 -32z m-2651 11 c9 -25 -16 -34 -99 -34 -77 0 -78 0 -78
25 0 25 1 25 85 25 69 0 87 -3 92 -16z m488 6 c4 -6 -23 -10 -74 -10 -47 0
-81 4 -81 10 0 6 31 10 74 10 41 0 78 -4 81 -10z m-364 -217 c-8 -16 -10 -14
-16 10 -5 17 -2 33 6 44 13 15 14 14 17 -10 2 -15 -1 -34 -7 -44z m349 37 c0
-6 -34 -10 -81 -10 -51 0 -78 4 -74 10 3 6 40 10 81 10 43 0 74 -4 74 -10z
m-860 -115 l0 -35 -157 0 c-180 1 -226 8 -262 44 l-26 26 223 0 222 0 0 -35z
m158 3 l-3 -33 -67 -3 -68 -3 0 29 c0 16 3 32 7 35 3 4 35 7 70 7 l64 0 -3
-32z m345 -3 l17 -36 -77 3 c-76 3 -77 3 -90 36 l-13 32 73 0 73 0 17 -35z
m496 18 c-32 -38 -78 -47 -276 -51 l-193 -4 0 29 c0 16 3 33 7 36 3 4 112 7
241 7 217 0 233 -1 221 -17z m159 -15 c-3 -33 -3 -33 -65 -36 -66 -3 -69 -1
-57 46 6 20 13 22 66 22 l59 0 -3 -32z m340 0 c-3 -33 -4 -33 -60 -36 l-58 -3
0 36 0 35 61 0 60 0 -3 -32z m152 -3 l0 -35 -63 0 -63 0 4 35 4 35 59 0 59 0
0 -35z m342 0 l-4 -35 -59 0 c-62 0 -65 3 -53 48 6 19 13 22 63 22 l57 0 -4
-35z m158 16 c0 -45 -9 -51 -76 -51 -56 0 -64 2 -64 19 0 45 9 51 76 51 56 0
64 -2 64 -19z m176 3 c-3 -9 -6 -24 -6 -35 0 -17 -8 -19 -76 -19 -74 0 -76 1
-70 23 3 12 6 28 6 35 0 8 22 12 76 12 65 0 75 -2 70 -16z m313 -13 c12 -16
21 -32 21 -35 0 -3 -39 -6 -87 -6 l-88 0 -23 35 -22 35 89 0 c88 0 90 -1 110
-29z m179 -3 c-3 -33 -3 -33 -65 -36 -66 -3 -69 -1 -57 46 6 20 13 22 66 22
l59 0 -3 -32z m340 0 c-3 -33 -4 -33 -60 -36 l-58 -3 0 36 0 35 61 0 60 0 -3
-32z"/>
</g>
</svg>
