<?xml version="1.0" standalone="no"?>
<!DOCTYPE svg PUBLIC "-//W3C//DTD SVG 20010904//EN"
 "http://www.w3.org/TR/2001/REC-SVG-20010904/DTD/svg10.dtd">
<svg version="1.0" xmlns="http://www.w3.org/2000/svg"
 width="512.000000pt" height="512.000000pt" viewBox="0 0 512.000000 512.000000"
 preserveAspectRatio="xMidYMid meet">

<g transform="translate(0.000000,512.000000) scale(0.100000,-0.100000)"
fill="#000000" stroke="none">
<path d="M2465 5024 c-131 -22 -277 -85 -368 -161 -83 -70 -142 -146 -192
-248 -156 -321 -60 -704 230 -910 99 -71 258 -133 346 -136 13 0 -16 -9 -66
-19 -143 -30 -259 -93 -365 -199 -96 -95 -147 -176 -189 -299 l-26 -77 -5
-640 c-5 -566 -8 -646 -23 -690 -16 -46 -56 -121 -92 -171 -15 -20 -9 -22 407
-158 233 -75 431 -136 441 -136 16 0 847 267 854 274 2 1 -9 18 -23 37 -32 43
-68 112 -85 164 -10 30 -14 195 -19 680 l-5 640 -26 77 c-42 122 -93 204 -188
299 -71 71 -102 94 -181 133 -61 30 -127 54 -185 66 -49 10 -79 19 -66 19 43
2 154 33 217 61 91 41 174 101 240 173 76 83 119 155 157 264 29 82 31 98 32
223 0 114 -4 147 -23 210 -79 253 -268 437 -517 504 -62 17 -227 28 -280 20z"/>
<path d="M1515 3123 c-239 -244 -392 -583 -412 -915 -4 -58 -10 -98 -16 -98
-6 0 -151 46 -321 102 -299 98 -314 102 -401 103 -77 0 -98 -4 -147 -27 -79
-37 -142 -98 -181 -177 -29 -59 -32 -74 -32 -156 0 -82 3 -97 33 -157 33 -68
96 -134 157 -166 17 -8 97 -37 179 -63 l149 -48 58 30 c32 16 98 41 146 56 79
24 104 27 243 27 131 1 168 -2 237 -21 45 -13 101 -23 123 -23 79 0 168 69
189 147 7 25 11 243 11 614 0 598 4 674 45 788 8 24 13 46 11 49 -3 2 -35 -27
-71 -65z"/>
<path d="M3534 3174 c4 -10 17 -53 29 -94 20 -72 21 -102 27 -710 6 -697 2
-662 67 -721 69 -64 125 -72 256 -36 69 19 106 22 237 21 139 0 164 -3 243
-27 48 -15 114 -40 146 -57 l58 -29 151 48 c82 26 170 60 194 74 59 34 114 97
146 166 23 47 27 70 27 146 0 82 -3 97 -32 156 -39 79 -102 140 -181 177 -49
23 -70 27 -147 27 -87 -1 -101 -5 -400 -103 -170 -56 -315 -102 -321 -102 -7
0 -13 37 -17 98 -15 242 -112 522 -250 719 -58 84 -176 221 -211 246 -28 20
-29 20 -22 1z"/>
<path d="M830 1325 c-216 -59 -390 -232 -444 -442 -20 -77 -21 -231 -1 -308
53 -210 225 -388 445 -461 52 -18 126 -19 1443 -22 l1388 -2 -6 57 c-23 194
-148 372 -318 452 -34 16 -188 69 -342 119 -364 117 -1399 454 -1675 544 -205
67 -220 71 -325 74 -77 3 -127 -1 -165 -11z"/>
<path d="M4000 1324 c-30 -8 -235 -73 -455 -145 -220 -72 -422 -137 -450 -146
l-50 -16 201 -67 c228 -75 318 -121 422 -216 169 -154 263 -347 288 -588 l6
-59 136 6 c214 8 331 56 463 187 130 129 189 269 189 448 0 176 -54 307 -180
433 -82 83 -174 136 -285 164 -74 19 -213 18 -285 -1z"/>
</g>
</svg>
