<?xml version="1.0" standalone="no"?>
<!DOCTYPE svg PUBLIC "-//W3C//DTD SVG 20010904//EN"
 "http://www.w3.org/TR/2001/REC-SVG-20010904/DTD/svg10.dtd">
<svg version="1.0" xmlns="http://www.w3.org/2000/svg"
 width="512.000000pt" height="512.000000pt" viewBox="0 0 512.000000 512.000000"
 preserveAspectRatio="xMidYMid meet">

<g transform="translate(0.000000,512.000000) scale(0.100000,-0.100000)"
fill="#000000" stroke="none">
<path d="M2455 5107 c-60 -28 -78 -64 -135 -263 -30 -104 -54 -206 -54 -226 2
-45 33 -97 72 -120 25 -15 56 -18 191 -18 474 0 880 -139 1239 -425 39 -32 72
-61 72 -65 0 -3 -14 -19 -31 -36 -17 -16 -44 -47 -60 -68 -52 -71 -33 -183 38
-219 15 -8 237 -74 491 -147 518 -147 508 -146 573 -81 66 65 67 56 -81 575
-73 256 -140 478 -151 495 -38 62 -136 83 -201 43 -18 -12 -53 -41 -77 -65
l-43 -45 -100 84 c-374 313 -832 512 -1318 574 -150 19 -391 23 -425 7z"/>
<path d="M1093 4766 c-254 -73 -474 -141 -487 -150 -58 -37 -76 -136 -38 -198
12 -18 41 -53 66 -77 l45 -44 -58 -66 c-375 -429 -592 -983 -618 -1576 -10
-248 -4 -256 272 -335 105 -30 207 -54 227 -53 45 1 97 32 121 71 14 25 17 56
17 191 0 474 139 880 425 1239 32 39 61 72 65 72 3 0 19 -14 36 -31 16 -17 47
-44 68 -60 71 -52 183 -33 219 38 8 15 74 237 147 491 102 358 130 472 126
498 -12 63 -86 125 -148 123 -13 0 -231 -60 -485 -133z"/>
<path d="M2474 3938 c-67 -46 -177 -186 -230 -293 -46 -93 -74 -197 -74 -275
0 -130 72 -307 179 -440 l61 -75 0 -314 0 -313 -22 14 c-13 8 -49 30 -80 48
-32 17 -58 37 -58 43 -1 27 -72 184 -110 242 -48 73 -146 171 -210 207 -99 57
-163 72 -320 72 -117 0 -162 -4 -234 -22 -179 -45 -209 -108 -143 -303 131
-383 403 -550 792 -485 l80 14 152 -87 153 -86 0 -198 c0 -229 8 -260 80 -297
50 -25 90 -25 140 0 72 36 80 68 80 297 l1 198 152 86 152 87 80 -14 c401 -67
667 104 801 514 39 120 29 186 -35 231 -91 65 -414 89 -558 42 -88 -28 -156
-70 -224 -136 -86 -83 -164 -214 -200 -335 -10 -31 -22 -46 -58 -66 -25 -15
-61 -35 -78 -46 l-33 -20 0 314 0 313 61 75 c107 133 179 310 179 440 0 156
-79 327 -228 498 -94 108 -163 127 -248 70z"/>
<path d="M4588 2850 c-37 -11 -68 -34 -89 -67 -16 -24 -19 -49 -19 -190 0
-496 -152 -917 -463 -1288 l-26 -30 -48 46 c-71 68 -91 79 -148 79 -58 0 -107
-25 -128 -67 -8 -15 -74 -237 -147 -491 -147 -518 -146 -508 -81 -573 65 -66
56 -67 575 81 256 73 478 140 495 151 39 24 63 70 63 125 0 52 -22 91 -85 153
l-45 43 84 100 c364 436 566 963 591 1543 10 247 2 257 -263 332 -211 60 -231
64 -266 53z"/>
<path d="M315 1716 c-42 -18 -83 -69 -91 -112 -5 -27 21 -132 126 -498 73
-256 140 -478 151 -495 24 -39 70 -63 125 -63 52 0 91 22 153 85 l43 45 102
-85 c431 -362 965 -566 1546 -590 245 -10 249 -6 331 283 52 181 58 211 49
243 -12 43 -30 68 -67 93 -24 15 -50 18 -190 18 -450 0 -846 127 -1179 378
-43 33 -92 72 -109 85 l-30 26 46 48 c68 71 79 91 79 148 0 58 -25 107 -67
128 -36 19 -942 277 -968 277 -11 -1 -34 -7 -50 -14z"/>
</g>
</svg>
