<?xml version="1.0" standalone="no"?>
<!DOCTYPE svg PUBLIC "-//W3C//DTD SVG 20010904//EN"
 "http://www.w3.org/TR/2001/REC-SVG-20010904/DTD/svg10.dtd">
<svg version="1.0" xmlns="http://www.w3.org/2000/svg"
 width="512.000000pt" height="512.000000pt" viewBox="0 0 512.000000 512.000000"
 preserveAspectRatio="xMidYMid meet">

<g transform="translate(0.000000,512.000000) scale(0.100000,-0.100000)"
fill="#000000" stroke="none">
<path d="M345 4346 c-84 -21 -147 -57 -211 -121 -65 -65 -105 -136 -123 -223
-16 -76 -16 -2810 0 -2884 37 -172 175 -310 347 -347 75 -16 4328 -16 4404 0
170 36 311 178 347 347 16 76 16 2810 0 2884 -37 172 -176 311 -347 347 -81
17 -4349 14 -4417 -3z m1279 -865 c165 -58 292 -185 348 -349 17 -52 23 -90
23 -167 0 -121 -25 -211 -84 -303 l-40 -62 58 -39 c120 -82 232 -215 292 -346
51 -113 70 -199 76 -345 5 -125 4 -139 -16 -178 -14 -28 -34 -48 -61 -62 -38
-20 -57 -20 -771 -20 l-732 0 -42 24 c-67 40 -79 78 -72 238 8 194 49 323 150
472 62 92 174 195 275 252 2 1 -15 29 -37 63 -63 99 -86 177 -86 301 0 83 5
119 23 172 66 191 231 333 432 372 54 10 206 -3 264 -23z m1816 -191 c45 -23
80 -80 80 -130 0 -50 -35 -107 -80 -130 -37 -19 -58 -20 -371 -20 -325 0 -332
0 -371 22 -101 57 -102 194 -2 254 39 24 40 24 372 24 314 0 335 -1 372 -20z
m1000 -600 c45 -23 80 -80 80 -130 0 -50 -35 -107 -80 -130 -38 -20 -57 -20
-871 -20 l-831 0 -40 22 c-45 25 -78 80 -78 128 0 48 35 107 78 129 36 20 60
20 870 21 815 0 834 0 872 -20z m0 -600 c45 -23 80 -80 80 -130 0 -50 -35
-107 -80 -130 -38 -20 -57 -20 -871 -20 l-831 0 -40 22 c-101 57 -102 194 -2
254 l39 24 833 0 c815 0 834 0 872 -20z"/>
<path d="M1361 3193 c-88 -31 -161 -136 -161 -233 0 -132 118 -250 250 -250
60 0 130 30 175 75 188 188 -12 497 -264 408z"/>
<path d="M1312 2390 c-213 -57 -368 -228 -406 -447 l-5 -33 549 0 550 0 -6 28
c-49 227 -171 373 -370 443 -88 30 -220 34 -312 9z"/>
</g>
</svg>
