<?xml version="1.0" standalone="no"?>
<!DOCTYPE svg PUBLIC "-//W3C//DTD SVG 20010904//EN"
 "http://www.w3.org/TR/2001/REC-SVG-20010904/DTD/svg10.dtd">
<svg version="1.0" xmlns="http://www.w3.org/2000/svg"
 width="512.000000pt" height="512.000000pt" viewBox="0 0 512.000000 512.000000"
 preserveAspectRatio="xMidYMid meet">

<g transform="translate(0.000000,512.000000) scale(0.100000,-0.100000)"
fill="#000000" stroke="none">
<path d="M692 4146 c-29 -7 -55 -15 -57 -18 -3 -2 364 -353 815 -779 598 -565
835 -783 877 -806 172 -95 368 -81 523 36 26 20 408 376 850 790 l802 755 -38
15 c-35 14 -241 16 -1879 18 -1471 1 -1851 -1 -1893 -11z"/>
<path d="M365 3881 c-45 -89 -45 -75 -45 -1321 0 -1024 2 -1183 15 -1235 45
-172 179 -305 352 -350 86 -23 3660 -23 3746 0 173 45 307 178 352 350 22 86
23 2367 0 2461 -16 68 -34 114 -46 114 -4 0 -378 -348 -830 -772 -452 -425
-845 -790 -873 -812 -63 -48 -190 -109 -276 -132 -88 -24 -301 -25 -385 -2
-105 29 -172 58 -247 107 -49 32 -344 304 -905 834 -458 433 -835 787 -838
787 -2 0 -11 -13 -20 -29z"/>
</g>
</svg>
