<?xml version="1.0" standalone="no"?>
<!DOCTYPE svg PUBLIC "-//W3C//DTD SVG 20010904//EN"
 "http://www.w3.org/TR/2001/REC-SVG-20010904/DTD/svg10.dtd">
<svg version="1.0" xmlns="http://www.w3.org/2000/svg"
 width="512.000000pt" height="512.000000pt" viewBox="0 0 512.000000 512.000000"
 preserveAspectRatio="xMidYMid meet">

<g transform="translate(0.000000,512.000000) scale(0.100000,-0.100000)"
fill="#000000" stroke="none">
<path d="M2371 4675 c-352 -79 -620 -320 -724 -650 -109 -347 -18 -717 240
-973 124 -123 266 -203 443 -249 130 -34 314 -36 443 -5 184 45 338 130 463
256 459 462 340 1233 -237 1531 -142 74 -238 97 -414 101 -106 3 -169 -1 -214
-11z"/>
<path d="M1580 2339 c-230 -26 -463 -141 -630 -309 -132 -134 -227 -301 -278
-488 -26 -96 -26 -102 -26 -437 -1 -387 1 -397 80 -505 49 -67 123 -121 207
-150 56 -20 83 -20 1625 -20 1744 0 1614 -5 1730 69 71 47 141 135 169 214 16
47 18 87 17 392 0 335 0 341 -26 437 -119 438 -477 748 -921 797 -116 13
-1834 13 -1947 0z"/>
</g>
</svg>
