<?xml version="1.0" standalone="no"?>
<!DOCTYPE svg PUBLIC "-//W3C//DTD SVG 20010904//EN"
 "http://www.w3.org/TR/2001/REC-SVG-20010904/DTD/svg10.dtd">
<svg version="1.0" xmlns="http://www.w3.org/2000/svg"
 width="512.000000pt" height="512.000000pt" viewBox="0 0 512.000000 512.000000"
 preserveAspectRatio="xMidYMid meet">

<g transform="translate(0.000000,512.000000) scale(0.100000,-0.100000)"
fill="#000000" stroke="none">
<path d="M2397 5109 c-601 -69 -1106 -493 -1272 -1066 -54 -187 -57 -222 -64
-778 l-6 -520 -70 -26 c-38 -14 -92 -34 -119 -44 -61 -22 -114 -68 -137 -120
-18 -38 -19 -95 -19 -1060 0 -968 1 -1022 19 -1060 21 -46 67 -89 120 -111 80
-34 360 -126 481 -159 910 -246 1860 -215 2747 90 87 29 174 61 194 69 53 22
99 65 120 111 18 38 19 92 19 1060 0 965 -1 1022 -19 1060 -23 52 -76 98 -137
120 -27 10 -80 30 -119 44 l-70 26 -6 520 c-7 556 -10 591 -64 778 -134 463
-507 848 -967 1001 -197 64 -430 89 -631 65z m274 -514 c205 -16 418 -118 577
-276 139 -138 233 -311 273 -504 17 -79 19 -139 19 -507 0 -328 -3 -418 -12
-418 -7 0 -60 9 -118 20 -183 34 -404 59 -626 72 -333 18 -748 -10 -1074 -72
-58 -11 -111 -20 -117 -20 -10 0 -13 90 -13 418 0 368 2 428 19 507 26 127 72
237 140 341 168 255 431 415 726 442 50 5 99 8 110 6 11 -2 54 -5 96 -9z m-40
-2315 c173 -32 303 -167 330 -344 20 -126 -28 -255 -128 -347 -30 -27 -59 -49
-64 -49 -5 0 -9 -149 -9 -362 0 -332 -2 -366 -19 -403 -22 -48 -54 -79 -103
-100 -100 -41 -214 3 -259 100 -17 36 -19 71 -19 395 l0 355 -63 56 c-142 128
-181 304 -103 474 60 131 207 228 357 234 15 1 51 -4 80 -9z"/>
</g>
</svg>
