<svg version="1.1" xmlns="http://www.w3.org/2000/svg" xmlns:xlink="http://www.w3.org/1999/xlink" width="512.000000pt" height="512.000000pt" viewBox="0,0,256,256"><g fill="#38d732" fill-rule="nonzero" stroke="none" stroke-width="1" stroke-linecap="butt" stroke-linejoin="miter" stroke-miterlimit="10" stroke-dasharray="" stroke-dashoffset="0" font-family="none" font-weight="none" font-size="none" text-anchor="none" style="mix-blend-mode: normal"><g transform="translate(-0.025,0.04179) scale(0.5,0.5)"><g transform="translate(0,512) scale(0.1,-0.1)"><path d="M2321,5110c-497,-48 -990,-251 -1376,-565c-114,-92 -294,-274 -384,-387c-229,-287 -417,-675 -495,-1023c-49,-218 -60,-325 -60,-575c0,-250 11,-357 60,-575c79,-355 272,-749 509,-1040c92,-114 274,-294 387,-384c287,-229 675,-417 1023,-495c218,-49 325,-60 575,-60c250,0 357,11 575,60c261,58 603,204 828,353c389,259 688,599 893,1016c125,255 196,484 241,775c24,161 24,539 0,700c-45,291 -116,520 -241,775c-134,272 -283,480 -498,692c-211,209 -404,346 -673,478c-252,124 -486,197 -765,240c-126,19 -468,27 -599,15zM2740,4599c482,-45 924,-252 1266,-593c801,-802 801,-2090 0,-2892c-802,-801 -2090,-801 -2892,0c-801,802 -801,2090 0,2892c431,430 1029,649 1626,593z"></path><path d="M2396,3829c-483,-67 -895,-404 -1046,-857c-50,-152 -64,-242 -64,-412c0,-171 14,-260 65,-415c121,-362 433,-673 797,-795c152,-50 242,-64 412,-64c170,0 260,14 412,64c364,122 676,433 797,795c51,155 65,244 65,415c0,111 -5,179 -17,240c-57,271 -178,492 -371,678c-182,175 -391,286 -641,337c-96,20 -314,28 -409,14z"></path></g></g></g></svg>