<svg version="1.1" xmlns="http://www.w3.org/2000/svg" xmlns:xlink="http://www.w3.org/1999/xlink" width="512.000000pt" height="512.000000pt" viewBox="0,0,256,256"><g fill="#38d732" fill-rule="nonzero" stroke="none" stroke-width="1" stroke-linecap="butt" stroke-linejoin="miter" stroke-miterlimit="10" stroke-dasharray="" stroke-dashoffset="0" font-family="none" font-weight="none" font-size="none" text-anchor="none" style="mix-blend-mode: normal"><g transform="translate(-0.04693,-0.12548) scale(0.5,0.5)"><g transform="translate(0,512) scale(0.1,-0.1)"><path d="M692,4146c-29,-7 -55,-15 -57,-18c-3,-2 364,-353 815,-779c598,-565 835,-783 877,-806c172,-95 368,-81 523,36c26,20 408,376 850,790l802,755l-38,15c-35,14 -241,16 -1879,18c-1471,1 -1851,-1 -1893,-11z"></path><path d="M365,3881c-45,-89 -45,-75 -45,-1321c0,-1024 2,-1183 15,-1235c45,-172 179,-305 352,-350c86,-23 3660,-23 3746,0c173,45 307,178 352,350c22,86 23,2367 0,2461c-16,68 -34,114 -46,114c-4,0 -378,-348 -830,-772c-452,-425 -845,-790 -873,-812c-63,-48 -190,-109 -276,-132c-88,-24 -301,-25 -385,-2c-105,29 -172,58 -247,107c-49,32 -344,304 -905,834c-458,433 -835,787 -838,787c-2,0 -11,-13 -20,-29z"></path></g></g></g></svg>