<svg version="1.1" xmlns="http://www.w3.org/2000/svg" xmlns:xlink="http://www.w3.org/1999/xlink" width="256.000000pt" height="256.000000pt" viewBox="0,0,256,256"><g fill="#38d732" fill-rule="nonzero" stroke="none" stroke-width="1" stroke-linecap="butt" stroke-linejoin="miter" stroke-miterlimit="10" stroke-dasharray="" stroke-dashoffset="0" font-family="none" font-weight="none" font-size="none" text-anchor="none" style="mix-blend-mode: normal"><g transform="translate(-0.08675,-0.0483)"><g transform="translate(0,256) scale(0.1,-0.1)"><path d="M2190,2254c-22,-9 -265,-244 -670,-649l-635,-635l-240,241c-284,285 -307,300 -419,267c-44,-13 -161,-116 -195,-172c-28,-45 -36,-107 -21,-164c12,-43 45,-79 384,-421c204,-205 389,-386 410,-402c31,-23 49,-29 90,-29h51l788,787c540,539 795,801 808,828c23,49 24,103 4,153c-19,45 -137,167 -187,193c-45,23 -119,24 -168,3z"></path></g></g></g></svg>