<svg version="1.1" xmlns="http://www.w3.org/2000/svg" xmlns:xlink="http://www.w3.org/1999/xlink" width="512.000000pt" height="512.000000pt" viewBox="0,0,256,256"><g fill="#38d732" fill-rule="nonzero" stroke="none" stroke-width="1" stroke-linecap="butt" stroke-linejoin="miter" stroke-miterlimit="10" stroke-dasharray="" stroke-dashoffset="0" font-family="none" font-weight="none" font-size="none" text-anchor="none" style="mix-blend-mode: normal"><g transform="translate(-0.00173,-0.07741) scale(0.5,0.5)"><g transform="translate(0,512) scale(0.1,-0.1)"><path d="M2371,4675c-352,-79 -620,-320 -724,-650c-109,-347 -18,-717 240,-973c124,-123 266,-203 443,-249c130,-34 314,-36 443,-5c184,45 338,130 463,256c459,462 340,1233 -237,1531c-142,74 -238,97 -414,101c-106,3 -169,-1 -214,-11z"></path><path d="M1580,2339c-230,-26 -463,-141 -630,-309c-132,-134 -227,-301 -278,-488c-26,-96 -26,-102 -26,-437c-1,-387 1,-397 80,-505c49,-67 123,-121 207,-150c56,-20 83,-20 1625,-20c1744,0 1614,-5 1730,69c71,47 141,135 169,214c16,47 18,87 17,392c0,335 0,341 -26,437c-119,438 -477,748 -921,797c-116,13 -1834,13 -1947,0z"></path></g></g></g></svg>