<svg version="1.1" xmlns="http://www.w3.org/2000/svg" xmlns:xlink="http://www.w3.org/1999/xlink" width="512.000000pt" height="512.000000pt" viewBox="0,0,256,256"><g fill="#38d732" fill-rule="nonzero" stroke="none" stroke-width="1" stroke-linecap="butt" stroke-linejoin="miter" stroke-miterlimit="10" stroke-dasharray="" stroke-dashoffset="0" font-family="none" font-weight="none" font-size="none" text-anchor="none" style="mix-blend-mode: normal"><g transform="translate(0.0136,-0.13281) scale(0.5,0.5)"><g transform="translate(0,512) scale(0.1,-0.1)"><path d="M2487,4590c-27,-5 -72,-20 -100,-34c-31,-16 -520,-416 -1212,-994c-1222,-1019 -1188,-988 -1172,-1054c4,-13 58,-85 122,-160c96,-114 121,-138 149,-144c19,-3 44,-3 55,1c11,3 517,420 1123,925c607,506 1105,920 1108,920c3,0 501,-414 1108,-920c606,-505 1112,-922 1123,-925c11,-4 36,-4 55,-1c28,6 53,30 149,144c64,75 118,147 122,160c15,62 3,74 -367,382l-355,296l-5,672l-5,672l-28,27l-27,28l-323,3c-210,2 -335,0 -358,-7c-68,-20 -68,-22 -71,-386l-3,-327l-408,340c-437,365 -450,374 -572,385c-33,3 -82,2 -108,-3z"></path><path d="M1642,3018l-912,-752v-780c0,-537 4,-794 11,-821c15,-55 83,-119 142,-133c32,-9 228,-12 656,-12h611v610v610h410h410v-610v-610h611c407,0 625,4 653,11c56,14 114,62 137,113c18,39 19,84 19,832v790l-909,749c-499,412 -912,750 -917,752c-5,2 -420,-335 -922,-749z"></path></g></g></g></svg>