<svg version="1.1" xmlns="http://www.w3.org/2000/svg" xmlns:xlink="http://www.w3.org/1999/xlink" width="512.000000pt" height="512.000000pt" viewBox="0,0,256,256"><g fill="#38d732" fill-rule="nonzero" stroke="none" stroke-width="1" stroke-linecap="butt" stroke-linejoin="miter" stroke-miterlimit="10" stroke-dasharray="" stroke-dashoffset="0" font-family="none" font-weight="none" font-size="none" text-anchor="none" style="mix-blend-mode: normal"><g transform="translate(0,-0.01628) scale(0.5,0.5)"><g transform="translate(0,512) scale(0.1,-0.1)"><path d="M345,4346c-84,-21 -147,-57 -211,-121c-65,-65 -105,-136 -123,-223c-16,-76 -16,-2810 0,-2884c37,-172 175,-310 347,-347c75,-16 4328,-16 4404,0c170,36 311,178 347,347c16,76 16,2810 0,2884c-37,172 -176,311 -347,347c-81,17 -4349,14 -4417,-3zM1624,3481c165,-58 292,-185 348,-349c17,-52 23,-90 23,-167c0,-121 -25,-211 -84,-303l-40,-62l58,-39c120,-82 232,-215 292,-346c51,-113 70,-199 76,-345c5,-125 4,-139 -16,-178c-14,-28 -34,-48 -61,-62c-38,-20 -57,-20 -771,-20h-732l-42,24c-67,40 -79,78 -72,238c8,194 49,323 150,472c62,92 174,195 275,252c2,1 -15,29 -37,63c-63,99 -86,177 -86,301c0,83 5,119 23,172c66,191 231,333 432,372c54,10 206,-3 264,-23zM3440,3290c45,-23 80,-80 80,-130c0,-50 -35,-107 -80,-130c-37,-19 -58,-20 -371,-20c-325,0 -332,0 -371,22c-101,57 -102,194 -2,254c39,24 40,24 372,24c314,0 335,-1 372,-20zM4440,2690c45,-23 80,-80 80,-130c0,-50 -35,-107 -80,-130c-38,-20 -57,-20 -871,-20h-831l-40,22c-45,25 -78,80 -78,128c0,48 35,107 78,129c36,20 60,20 870,21c815,0 834,0 872,-20zM4440,2090c45,-23 80,-80 80,-130c0,-50 -35,-107 -80,-130c-38,-20 -57,-20 -871,-20h-831l-40,22c-101,57 -102,194 -2,254l39,24h833c815,0 834,0 872,-20z"></path><path d="M1361,3193c-88,-31 -161,-136 -161,-233c0,-132 118,-250 250,-250c60,0 130,30 175,75c188,188 -12,497 -264,408z"></path><path d="M1312,2390c-213,-57 -368,-228 -406,-447l-5,-33h549h550l-6,28c-49,227 -171,373 -370,443c-88,30 -220,34 -312,9z"></path></g></g></g></svg>