<svg version="1.1" xmlns="http://www.w3.org/2000/svg" xmlns:xlink="http://www.w3.org/1999/xlink" width="512.000000pt" height="512.000000pt" viewBox="0,0,256,256"><g fill="#38d732" fill-rule="nonzero" stroke="none" stroke-width="1" stroke-linecap="butt" stroke-linejoin="miter" stroke-miterlimit="10" stroke-dasharray="" stroke-dashoffset="0" font-family="none" font-weight="none" font-size="none" text-anchor="none" style="mix-blend-mode: normal"><g transform="translate(-0.08177,-0.05331) scale(0.5,0.5)"><g transform="translate(0,512) scale(0.1,-0.1)"><path d="M1005,4349c-581,-46 -860,-221 -954,-601c-44,-177 -46,-231 -46,-1103c0,-893 3,-945 55,-1150c119,-463 420,-672 1045,-725c90,-8 573,-10 1565,-7c1524,4 1486,3 1705,51c381,83 597,295 685,670c50,216 53,266 57,1036c6,934 -7,1132 -88,1340c-108,281 -319,409 -784,477c-97,15 -288,17 -1620,19c-830,1 -1559,-2 -1620,-7zM2174,3299c46,-13 1085,-550 1134,-586c81,-61 86,-179 10,-250c-12,-12 -270,-151 -573,-309c-469,-245 -557,-288 -600,-291c-68,-5 -122,26 -152,87l-23,44v579c0,406 3,591 11,618c14,47 54,86 105,104c48,17 41,17 88,4z"></path></g></g></g></svg>