<svg version="1.1" xmlns="http://www.w3.org/2000/svg" xmlns:xlink="http://www.w3.org/1999/xlink" width="512.000000pt" height="512.000000pt" viewBox="0,0,256,256"><g fill="#38d732" fill-rule="nonzero" stroke="none" stroke-width="1" stroke-linecap="butt" stroke-linejoin="miter" stroke-miterlimit="10" stroke-dasharray="" stroke-dashoffset="0" font-family="none" font-weight="none" font-size="none" text-anchor="none" style="mix-blend-mode: normal"><g transform="translate(-0.09722,-0.03606) scale(0.5,0.5)"><g transform="translate(0,512) scale(0.1,-0.1)"><path d="M2370,5113c-371,-35 -653,-114 -961,-269c-406,-203 -782,-548 -1029,-944c-179,-286 -309,-655 -362,-1025c-17,-118 -17,-512 0,-630c42,-295 120,-553 242,-800c137,-280 272,-468 494,-691c221,-220 412,-357 681,-489c188,-92 309,-137 500,-185c500,-126 1002,-102 1490,71c149,53 407,182 540,271c365,243 667,578 866,963c181,348 271,694 286,1090c15,426 -73,832 -263,1214c-124,250 -263,447 -458,648c-216,224 -428,378 -711,518c-296,146 -572,225 -900,255c-102,9 -333,11 -415,3zM2627,4385c48,-20 71,-41 94,-87c18,-36 19,-72 19,-850v-813l396,-395c222,-221 402,-409 410,-427c40,-91 -8,-208 -99,-242c-36,-14 -98,-14 -134,-1c-37,14 -901,876 -919,917c-12,27 -14,179 -14,903c0,835 1,872 19,908c45,87 140,124 228,87z"></path></g></g></g></svg>