<svg version="1.1" xmlns="http://www.w3.org/2000/svg" xmlns:xlink="http://www.w3.org/1999/xlink" width="20" height="20" viewBox="0,0,256,256"><g fill="#38d732" fill-rule="nonzero" stroke="none" stroke-width="1" stroke-linecap="butt" stroke-linejoin="miter" stroke-miterlimit="10" stroke-dasharray="" stroke-dashoffset="0" font-family="none" font-weight="none" font-size="none" text-anchor="none" style="mix-blend-mode: normal"><g transform="translate(0,0.10036) scale(0.5,0.5)"><g transform="translate(0,512) scale(0.1,-0.1)"><path d="M2351,4628c-188,-21 -415,-95 -591,-193c-429,-240 -711,-645 -807,-1160c-21,-113 -24,-435 -5,-545c46,-263 135,-490 271,-696c69,-104 1223,-1508 1259,-1532c35,-23 129,-23 164,0c35,23 1190,1428 1259,1532c136,206 225,433 271,696c19,111 16,431 -5,547c-75,401 -267,742 -556,984c-345,290 -790,419 -1260,367zM2694,3665c289,-61 506,-329 506,-625c0,-363 -313,-658 -675,-637c-167,10 -298,70 -422,193c-149,149 -213,368 -168,578c72,341 416,564 759,491z"></path></g></g></g></svg>