<svg version="1.1" xmlns="http://www.w3.org/2000/svg" xmlns:xlink="http://www.w3.org/1999/xlink" width="20" height="20" viewBox="0,0,256,256"><g fill="#38d732" fill-rule="nonzero" stroke="none" stroke-width="1" stroke-linecap="butt" stroke-linejoin="miter" stroke-miterlimit="10" stroke-dasharray="" stroke-dashoffset="0" font-family="none" font-weight="none" font-size="none" text-anchor="none" style="mix-blend-mode: normal"><g transform="translate(-0.00451,0.04769) scale(0.5,0.5)"><g transform="translate(0,512) scale(0.1,-0.1)"><path d="M775,5035c-145,-40 -275,-136 -506,-372c-168,-172 -210,-235 -244,-368c-25,-96 -30,-272 -11,-411c117,-886 908,-2055 1960,-2898c589,-472 1185,-779 1728,-888c151,-30 466,-33 568,-5c146,40 255,115 472,326c513,496 501,950 -38,1347c-237,176 -448,257 -664,256c-244,-1 -436,-95 -704,-344c-64,-59 -127,-110 -142,-114c-86,-22 -270,57 -454,195c-306,229 -756,676 -980,972c-140,186 -200,310 -200,413c0,60 7,73 102,174c169,183 242,349 241,547c-2,176 -82,385 -235,611c-225,333 -417,506 -623,560c-63,17 -205,16 -270,-1z"></path></g></g></g></svg>