<svg version="1.1" xmlns="http://www.w3.org/2000/svg" xmlns:xlink="http://www.w3.org/1999/xlink" width="512.000000pt" height="512.000000pt" viewBox="0,0,256,256"><g fill="#38d732" fill-rule="nonzero" stroke="none" stroke-width="1" stroke-linecap="butt" stroke-linejoin="miter" stroke-miterlimit="10" stroke-dasharray="" stroke-dashoffset="0" font-family="none" font-weight="none" font-size="none" text-anchor="none" style="mix-blend-mode: normal"><g transform="translate(0.10869,0.01024) scale(0.5,0.5)"><g transform="translate(0,512) scale(0.1,-0.1)"><path d="M2315,5109c-800,-83 -1501,-517 -1927,-1196c-494,-786 -516,-1810 -56,-2613c243,-423 598,-770 1017,-994c357,-191 751,-296 1121,-300l135,-1l3,993l2,992h-275h-275v320v320l273,2l272,3l6,335c5,304 7,342 27,415c77,276 260,460 537,537c72,20 104,22 315,22c129,1 279,-3 333,-8l97,-8v-288v-288l-237,-4c-237,-3 -238,-3 -290,-30c-110,-58 -123,-105 -123,-435v-253h315c173,0 315,-3 315,-7c0,-5 -18,-145 -40,-312c-22,-168 -40,-308 -40,-313c0,-4 -124,-8 -275,-8h-275v-945c0,-520 2,-945 4,-945c19,0 257,90 347,131c301,138 534,304 774,550c209,215 338,400 471,674c118,244 199,516 236,795c16,124 16,509 0,625c-84,591 -328,1089 -733,1494c-397,396 -891,644 -1454,727c-123,18 -478,26 -600,13z"></path></g></g></g></svg>