<svg version="1.1" xmlns="http://www.w3.org/2000/svg" xmlns:xlink="http://www.w3.org/1999/xlink" width="512.000000pt" height="512.000000pt" viewBox="0,0,256,256"><g fill="#38d732" fill-rule="nonzero" stroke="none" stroke-width="1" stroke-linecap="butt" stroke-linejoin="miter" stroke-miterlimit="10" stroke-dasharray="" stroke-dashoffset="0" font-family="none" font-weight="none" font-size="none" text-anchor="none" style="mix-blend-mode: normal"><g transform="translate(0,-0.15843) scale(0.5,0.5)"><g transform="translate(0,512) scale(0.1,-0.1)"><path d="M2465,5024c-131,-22 -277,-85 -368,-161c-83,-70 -142,-146 -192,-248c-156,-321 -60,-704 230,-910c99,-71 258,-133 346,-136c13,0 -16,-9 -66,-19c-143,-30 -259,-93 -365,-199c-96,-95 -147,-176 -189,-299l-26,-77l-5,-640c-5,-566 -8,-646 -23,-690c-16,-46 -56,-121 -92,-171c-15,-20 -9,-22 407,-158c233,-75 431,-136 441,-136c16,0 847,267 854,274c2,1 -9,18 -23,37c-32,43 -68,112 -85,164c-10,30 -14,195 -19,680l-5,640l-26,77c-42,122 -93,204 -188,299c-71,71 -102,94 -181,133c-61,30 -127,54 -185,66c-49,10 -79,19 -66,19c43,2 154,33 217,61c91,41 174,101 240,173c76,83 119,155 157,264c29,82 31,98 32,223c0,114 -4,147 -23,210c-79,253 -268,437 -517,504c-62,17 -227,28 -280,20z"></path><path d="M1515,3123c-239,-244 -392,-583 -412,-915c-4,-58 -10,-98 -16,-98c-6,0 -151,46 -321,102c-299,98 -314,102 -401,103c-77,0 -98,-4 -147,-27c-79,-37 -142,-98 -181,-177c-29,-59 -32,-74 -32,-156c0,-82 3,-97 33,-157c33,-68 96,-134 157,-166c17,-8 97,-37 179,-63l149,-48l58,30c32,16 98,41 146,56c79,24 104,27 243,27c131,1 168,-2 237,-21c45,-13 101,-23 123,-23c79,0 168,69 189,147c7,25 11,243 11,614c0,598 4,674 45,788c8,24 13,46 11,49c-3,2 -35,-27 -71,-65z"></path><path d="M3534,3174c4,-10 17,-53 29,-94c20,-72 21,-102 27,-710c6,-697 2,-662 67,-721c69,-64 125,-72 256,-36c69,19 106,22 237,21c139,0 164,-3 243,-27c48,-15 114,-40 146,-57l58,-29l151,48c82,26 170,60 194,74c59,34 114,97 146,166c23,47 27,70 27,146c0,82 -3,97 -32,156c-39,79 -102,140 -181,177c-49,23 -70,27 -147,27c-87,-1 -101,-5 -400,-103c-170,-56 -315,-102 -321,-102c-7,0 -13,37 -17,98c-15,242 -112,522 -250,719c-58,84 -176,221 -211,246c-28,20 -29,20 -22,1z"></path><path d="M830,1325c-216,-59 -390,-232 -444,-442c-20,-77 -21,-231 -1,-308c53,-210 225,-388 445,-461c52,-18 126,-19 1443,-22l1388,-2l-6,57c-23,194 -148,372 -318,452c-34,16 -188,69 -342,119c-364,117 -1399,454 -1675,544c-205,67 -220,71 -325,74c-77,3 -127,-1 -165,-11z"></path><path d="M4000,1324c-30,-8 -235,-73 -455,-145c-220,-72 -422,-137 -450,-146l-50,-16l201,-67c228,-75 318,-121 422,-216c169,-154 263,-347 288,-588l6,-59l136,6c214,8 331,56 463,187c130,129 189,269 189,448c0,176 -54,307 -180,433c-82,83 -174,136 -285,164c-74,19 -213,18 -285,-1z"></path></g></g></g></svg>