<svg version="1.1" xmlns="http://www.w3.org/2000/svg" xmlns:xlink="http://www.w3.org/1999/xlink" width="512.000000pt" height="512.000000pt" viewBox="0,0,256,256"><g fill="#38d732" fill-rule="nonzero" stroke="none" stroke-width="1" stroke-linecap="butt" stroke-linejoin="miter" stroke-miterlimit="10" stroke-dasharray="" stroke-dashoffset="0" font-family="none" font-weight="none" font-size="none" text-anchor="none" style="mix-blend-mode: normal"><g transform="translate(0.05,-0.0375) scale(0.5,0.5)"><g transform="translate(0,512) scale(0.1,-0.1)"><path d="M1137,4825c-192,-53 -346,-225 -428,-478c-17,-54 -29,-100 -26,-103c3,-3 257,-39 564,-80c307,-40 573,-76 592,-79l34,-6l-6,118c-17,344 -172,565 -440,628c-76,18 -225,18 -290,0z"></path><path d="M777,4123c-11,-10 -8,-152 4,-202c17,-77 60,-151 126,-221l64,-68l-98,-81c-56,-47 -104,-79 -113,-77c-8,3 -63,8 -121,11l-105,7l-267,-233l-267,-234v-357v-358l22,-5c188,-44 394,-98 399,-103c3,-4 -9,-243 -26,-532l-32,-525l-131,-426c-73,-234 -132,-429 -132,-432c0,-4 83,-7 184,-7h183l21,58c12,31 79,226 150,432l129,375l32,260c18,143 37,293 43,333l10,72h143h142l127,-347l127,-347l-75,-407c-42,-224 -76,-412 -76,-418c0,-8 55,-11 180,-11c99,0 180,3 180,7c0,4 38,211 85,459c47,249 85,463 85,474c0,12 -38,128 -84,259c-86,243 -149,446 -144,462c2,4 217,-113 478,-261c261,-148 479,-271 484,-273c5,-2 -32,-75 -82,-162c-51,-88 -88,-162 -84,-166c27,-26 415,-240 421,-233c14,16 441,763 441,771c0,8 -391,236 -413,241c-7,1 -50,-64 -96,-145c-46,-82 -85,-150 -87,-151c-1,-2 -259,142 -572,319l-570,323l-31,105l-31,106l53,217c28,120 54,218 57,218c3,0 16,-87 28,-194c19,-172 26,-207 60,-296l39,-101l151,-89c84,-49 152,-85 152,-82c0,4 -27,102 -61,217l-60,210l-49,434c-28,238 -53,437 -56,442c-3,5 -51,9 -107,9c-56,0 -126,3 -154,6l-53,7l-20,55c-33,88 -32,92 26,111c108,36 219,132 270,233c24,47 61,184 52,193c-4,5 -898,125 -927,125c-10,0 -21,-3 -24,-7zM447,2534c-2,-3 -41,5 -154,31c-22,5 -23,10 -23,113v107l88,78l87,78l3,-202c1,-111 1,-203 -1,-205z"></path><path d="M4086,2147c-201,-313 -319,-494 -329,-500c-8,-6 -49,6 -111,32c-54,23 -104,41 -110,41c-10,0 -796,-1417 -796,-1435c0,-3 209,-5 465,-5h464l203,270l203,269l176,1h175l186,-267l185,-268l161,-3l160,-2l-361,904l-362,905l-80,21c-44,12 -110,30 -148,40l-67,19z"></path><path d="M3956,509c-92,-121 -166,-223 -163,-225c2,-2 204,-3 449,-2l445,3l-154,223l-154,222h-128h-128z"></path></g></g></g></svg>