<svg version="1.1" xmlns="http://www.w3.org/2000/svg" xmlns:xlink="http://www.w3.org/1999/xlink" width="512.000000pt" height="512.000000pt" viewBox="0,0,256,256"><g fill="#38d732" fill-rule="nonzero" stroke="none" stroke-width="1" stroke-linecap="butt" stroke-linejoin="miter" stroke-miterlimit="10" stroke-dasharray="" stroke-dashoffset="0" font-family="none" font-weight="none" font-size="none" text-anchor="none" style="mix-blend-mode: normal"><g transform="translate(0,-0.02866) scale(0.5,0.5)"><g transform="translate(0,512) scale(0.1,-0.1)"><path d="M2397,5109c-601,-69 -1106,-493 -1272,-1066c-54,-187 -57,-222 -64,-778l-6,-520l-70,-26c-38,-14 -92,-34 -119,-44c-61,-22 -114,-68 -137,-120c-18,-38 -19,-95 -19,-1060c0,-968 1,-1022 19,-1060c21,-46 67,-89 120,-111c80,-34 360,-126 481,-159c910,-246 1860,-215 2747,90c87,29 174,61 194,69c53,22 99,65 120,111c18,38 19,92 19,1060c0,965 -1,1022 -19,1060c-23,52 -76,98 -137,120c-27,10 -80,30 -119,44l-70,26l-6,520c-7,556 -10,591 -64,778c-134,463 -507,848 -967,1001c-197,64 -430,89 -631,65zM2671,4595c205,-16 418,-118 577,-276c139,-138 233,-311 273,-504c17,-79 19,-139 19,-507c0,-328 -3,-418 -12,-418c-7,0 -60,9 -118,20c-183,34 -404,59 -626,72c-333,18 -748,-10 -1074,-72c-58,-11 -111,-20 -117,-20c-10,0 -13,90 -13,418c0,368 2,428 19,507c26,127 72,237 140,341c168,255 431,415 726,442c50,5 99,8 110,6c11,-2 54,-5 96,-9zM2631,2280c173,-32 303,-167 330,-344c20,-126 -28,-255 -128,-347c-30,-27 -59,-49 -64,-49c-5,0 -9,-149 -9,-362c0,-332 -2,-366 -19,-403c-22,-48 -54,-79 -103,-100c-100,-41 -214,3 -259,100c-17,36 -19,71 -19,395v355l-63,56c-142,128 -181,304 -103,474c60,131 207,228 357,234c15,1 51,-4 80,-9z"></path></g></g></g></svg>