<svg version="1.1" xmlns="http://www.w3.org/2000/svg" xmlns:xlink="http://www.w3.org/1999/xlink" width="512.000000pt" height="512.000000pt" viewBox="0,0,256,256"><g fill="#38d732" fill-rule="nonzero" stroke="none" stroke-width="1" stroke-linecap="butt" stroke-linejoin="miter" stroke-miterlimit="10" stroke-dasharray="" stroke-dashoffset="0" font-family="none" font-weight="none" font-size="none" text-anchor="none" style="mix-blend-mode: normal"><g transform="translate(0.00199,-0.06737) scale(0.5,0.5)"><g transform="translate(0,512) scale(0.1,-0.1)"><path d="M2455,5107c-60,-28 -78,-64 -135,-263c-30,-104 -54,-206 -54,-226c2,-45 33,-97 72,-120c25,-15 56,-18 191,-18c474,0 880,-139 1239,-425c39,-32 72,-61 72,-65c0,-3 -14,-19 -31,-36c-17,-16 -44,-47 -60,-68c-52,-71 -33,-183 38,-219c15,-8 237,-74 491,-147c518,-147 508,-146 573,-81c66,65 67,56 -81,575c-73,256 -140,478 -151,495c-38,62 -136,83 -201,43c-18,-12 -53,-41 -77,-65l-43,-45l-100,84c-374,313 -832,512 -1318,574c-150,19 -391,23 -425,7z"></path><path d="M1093,4766c-254,-73 -474,-141 -487,-150c-58,-37 -76,-136 -38,-198c12,-18 41,-53 66,-77l45,-44l-58,-66c-375,-429 -592,-983 -618,-1576c-10,-248 -4,-256 272,-335c105,-30 207,-54 227,-53c45,1 97,32 121,71c14,25 17,56 17,191c0,474 139,880 425,1239c32,39 61,72 65,72c3,0 19,-14 36,-31c16,-17 47,-44 68,-60c71,-52 183,-33 219,38c8,15 74,237 147,491c102,358 130,472 126,498c-12,63 -86,125 -148,123c-13,0 -231,-60 -485,-133z"></path><path d="M2474,3938c-67,-46 -177,-186 -230,-293c-46,-93 -74,-197 -74,-275c0,-130 72,-307 179,-440l61,-75v-314v-313l-22,14c-13,8 -49,30 -80,48c-32,17 -58,37 -58,43c-1,27 -72,184 -110,242c-48,73 -146,171 -210,207c-99,57 -163,72 -320,72c-117,0 -162,-4 -234,-22c-179,-45 -209,-108 -143,-303c131,-383 403,-550 792,-485l80,14l152,-87l153,-86v-198c0,-229 8,-260 80,-297c50,-25 90,-25 140,0c72,36 80,68 80,297l1,198l152,86l152,87l80,-14c401,-67 667,104 801,514c39,120 29,186 -35,231c-91,65 -414,89 -558,42c-88,-28 -156,-70 -224,-136c-86,-83 -164,-214 -200,-335c-10,-31 -22,-46 -58,-66c-25,-15 -61,-35 -78,-46l-33,-20v314v313l61,75c107,133 179,310 179,440c0,156 -79,327 -228,498c-94,108 -163,127 -248,70z"></path><path d="M4588,2850c-37,-11 -68,-34 -89,-67c-16,-24 -19,-49 -19,-190c0,-496 -152,-917 -463,-1288l-26,-30l-48,46c-71,68 -91,79 -148,79c-58,0 -107,-25 -128,-67c-8,-15 -74,-237 -147,-491c-147,-518 -146,-508 -81,-573c65,-66 56,-67 575,81c256,73 478,140 495,151c39,24 63,70 63,125c0,52 -22,91 -85,153l-45,43l84,100c364,436 566,963 591,1543c10,247 2,257 -263,332c-211,60 -231,64 -266,53z"></path><path d="M315,1716c-42,-18 -83,-69 -91,-112c-5,-27 21,-132 126,-498c73,-256 140,-478 151,-495c24,-39 70,-63 125,-63c52,0 91,22 153,85l43,45l102,-85c431,-362 965,-566 1546,-590c245,-10 249,-6 331,283c52,181 58,211 49,243c-12,43 -30,68 -67,93c-24,15 -50,18 -190,18c-450,0 -846,127 -1179,378c-43,33 -92,72 -109,85l-30,26l46,48c68,71 79,91 79,148c0,58 -25,107 -67,128c-36,19 -942,277 -968,277c-11,-1 -34,-7 -50,-14z"></path></g></g></g></svg>